<svg width="56" height="44" viewBox="0 0 56 44" fill="none" xmlns="http://www.w3.org/2000/svg">
<path d="M47.4063 4.1966C43.7757 2.53005 39.9442 1.34164 36.0078 0.661136C35.972 0.654465 35.9351 0.65924 35.9022 0.674782C35.8693 0.690324 35.8422 0.715841 35.8246 0.747703C35.3323 1.6234 34.787 2.76557 34.4052 3.6632C30.1009 3.01874 25.8186 3.01874 21.6027 3.6632C21.221 2.7455 20.6558 1.6234 20.1614 0.747703C20.1431 0.716567 20.1158 0.691675 20.0831 0.676274C20.0505 0.660873 20.0139 0.655679 19.9782 0.66137C16.0414 1.34029 12.2096 2.5286 8.57944 4.19637C8.54839 4.20964 8.52221 4.23222 8.50454 4.261C1.24461 15.1073 -0.744324 25.6868 0.231476 36.1353C0.234235 36.1609 0.2421 36.1856 0.254605 36.2081C0.26711 36.2306 0.284 36.2503 0.304276 36.2662C5.09414 39.7839 9.73398 41.9194 14.2877 43.3348C14.3231 43.3453 14.3609 43.3448 14.396 43.3333C14.4311 43.3218 14.4619 43.2999 14.4842 43.2704C15.5612 41.7994 16.5214 40.2482 17.3448 38.6172C17.3562 38.5949 17.3626 38.5704 17.3638 38.5454C17.365 38.5204 17.3608 38.4954 17.3517 38.4721C17.3425 38.4488 17.3285 38.4277 17.3106 38.4102C17.2927 38.3927 17.2713 38.3792 17.2478 38.3706C15.7246 37.7929 14.2744 37.0884 12.8793 36.2886C12.8539 36.2736 12.8325 36.2527 12.8171 36.2275C12.8017 36.2023 12.7927 36.1738 12.7909 36.1443C12.7892 36.1149 12.7947 36.0854 12.807 36.0586C12.8194 36.0318 12.8381 36.0085 12.8616 35.9906C13.1551 35.7706 13.4489 35.5419 13.7291 35.3107C13.754 35.2901 13.7842 35.277 13.8162 35.2726C13.8481 35.2683 13.8807 35.273 13.9102 35.2862C23.075 39.4705 32.9968 39.4705 42.0534 35.2862C42.0829 35.2721 42.1158 35.2668 42.1482 35.2707C42.1807 35.2746 42.2113 35.2877 42.2366 35.3083C42.5171 35.5393 42.8106 35.7706 43.1065 35.9906C43.13 36.0083 43.1489 36.0315 43.1613 36.0582C43.1738 36.0848 43.1796 36.1142 43.178 36.1436C43.1765 36.173 43.1678 36.2016 43.1526 36.2268C43.1375 36.2521 43.1163 36.2732 43.0911 36.2883C41.6955 37.1035 40.2335 37.7993 38.7207 38.3683C38.6973 38.3773 38.6759 38.3911 38.6581 38.4089C38.6404 38.4267 38.6265 38.448 38.6176 38.4715C38.6086 38.495 38.6047 38.5201 38.6061 38.5453C38.6075 38.5704 38.6142 38.5949 38.6258 38.6172C39.4667 40.2459 40.4269 41.7971 41.4841 43.268C41.5057 43.2984 41.5363 43.3212 41.5716 43.3331C41.6068 43.3451 41.645 43.3457 41.6806 43.3348C46.2562 41.9191 50.8961 39.7837 55.6859 36.2662C55.7066 36.2511 55.7238 36.2319 55.7363 36.2096C55.7489 36.1874 55.7566 36.1628 55.759 36.1374C56.9266 24.0577 53.8032 13.5649 47.4791 4.2631C47.4636 4.23288 47.4378 4.20921 47.4063 4.19637V4.1966ZM18.7133 29.7732C15.9542 29.7732 13.6806 27.2399 13.6806 24.1289C13.6806 21.0181 15.9101 18.4848 18.7136 18.4848C21.5388 18.4848 23.7902 21.0402 23.7461 24.1291C23.7461 27.2399 21.5166 29.7732 18.7133 29.7732ZM37.3212 29.7732C34.562 29.7732 32.2884 27.2399 32.2884 24.1289C32.2884 21.0181 34.5177 18.4848 37.3212 18.4848C40.1464 18.4848 42.3978 21.0402 42.3537 24.1291C42.3537 27.2399 40.1464 29.7732 37.3212 29.7732Z" fill="#7289DA"/>
</svg>
