<svg width="80" height="80" viewBox="0 0 80 80" fill="none" xmlns="http://www.w3.org/2000/svg">
<rect width="80" height="80" rx="8" fill="black"/>
<g clip-path="url(#clip0_1447_8971)">
<path d="M27.9654 58.4038H25.3442L25.2222 58.3297C24.7861 58.0273 24.4299 57.6247 24.184 57.1562C23.938 56.6876 23.8096 56.167 23.8096 55.6385C23.8096 55.1101 23.938 54.5895 24.184 54.1209C24.4299 53.6524 24.7861 53.2498 25.2222 52.9474L25.345 52.874H27.9686V53.889H25.6483C25.3912 54.1034 25.1845 54.3711 25.0427 54.6733C24.9009 54.9756 24.8274 55.305 24.8274 55.6385C24.8274 55.972 24.9009 56.3015 25.0427 56.6037C25.1845 56.906 25.3912 57.1737 25.6483 57.3881H27.9622L27.9654 58.4038Z" fill="white"/>
<path d="M32.81 58.4038C32.4124 58.407 32.0201 58.3126 31.6681 58.1289C31.316 57.9451 31.0151 57.6778 30.7921 57.3506L30.7119 57.2287V52.835H31.7333V56.9169C31.8696 57.0656 32.0356 57.1843 32.2207 57.2655C32.4059 57.3468 32.606 57.3887 32.8084 57.3887C33.0108 57.3887 33.2109 57.3468 33.396 57.2655C33.5812 57.1843 33.7472 57.0656 33.8835 56.9169V52.835H34.9081V57.2271L34.8335 57.3483C34.6098 57.6763 34.3081 57.9443 33.9551 58.1285C33.6021 58.3126 33.2087 58.4072 32.81 58.4038Z" fill="white"/>
<path d="M54.8044 52.8359V54.9207C54.6661 55.0724 54.4974 55.1935 54.3091 55.2764C54.1208 55.3594 53.9172 55.4022 53.7112 55.4022C53.5053 55.4022 53.3016 55.3594 53.1133 55.2764C52.9251 55.1935 52.7564 55.0724 52.618 54.9207V52.8359H51.5967V55.2341L51.6705 55.356C52.0231 55.8725 52.563 56.2336 53.1773 56.3638V58.3896H54.1986V56.3749C54.8306 56.2528 55.388 55.8867 55.7487 55.3568L55.8233 55.2357V52.8359H54.8044Z" fill="white"/>
<path d="M38.6788 58.3899V56.3537H39.3255L40.6565 58.3899H41.8745L40.5434 56.3537H40.8643L40.9863 56.2796C41.2618 56.0916 41.4871 55.8399 41.6428 55.546C41.7985 55.2522 41.8799 54.9251 41.8799 54.593C41.8799 54.2609 41.7985 53.9338 41.6428 53.6399C41.4871 53.3461 41.2618 53.0943 40.9863 52.9064L40.8643 52.833H38.5408H37.6582V58.3867L38.6788 58.3899ZM38.6788 53.8456H40.5418C40.6412 53.9429 40.7201 54.0589 40.774 54.1868C40.8278 54.3147 40.8556 54.4519 40.8556 54.5906C40.8556 54.7292 40.8278 54.8665 40.774 54.9944C40.7201 55.1223 40.6412 55.2383 40.5418 55.3356H38.6788V53.8456Z" fill="white"/>
<path d="M45.6485 58.3899V56.3537H46.2952L47.6262 58.3899H48.845L47.5131 56.3537H47.834L47.956 56.2796C48.2315 56.0916 48.4568 55.8399 48.6125 55.546C48.7682 55.2522 48.8496 54.9251 48.8496 54.593C48.8496 54.2609 48.7682 53.9338 48.6125 53.6399C48.4568 53.3461 48.2315 53.0943 47.956 52.9064L47.834 52.833H45.5105H44.6279V58.3867L45.6485 58.3899ZM45.6485 53.8456H47.5115C47.6109 53.9429 47.6898 54.0589 47.7437 54.1868C47.7975 54.3147 47.8253 54.4519 47.8253 54.5906C47.8253 54.7292 47.7975 54.8665 47.7437 54.9944C47.6898 55.1223 47.6109 55.2383 47.5115 55.3356H45.6485V53.8456Z" fill="white"/>
<path d="M25.105 29.6165C29.3091 26.0248 34.9559 22.937 36.6922 21.9316C38.3971 20.9438 38.69 20.6505 39.6407 18.3289C40.7014 15.7386 41.2454 14.3218 39.6022 15.3208C37.8531 16.3859 34.7963 18.9595 32.5225 20.9997C29.5908 23.6306 27.0899 26.472 24.8522 29.335C24.5361 29.7392 24.7455 29.9234 25.105 29.6165Z" fill="white"/>
<path d="M54.8002 25.345C44.4101 27.6938 33.3597 33.7465 29.669 36.4356C28.0483 36.2994 27.0662 35.9916 27.0662 35.3298C27.0662 34.1682 32.4298 31.0247 37.3785 28.68C41.1326 26.8997 44.2095 25.4001 45.3745 24.889C46.4704 24.4107 47.2591 23.3049 48.0133 22.2421C49.5241 20.111 50.4203 18.4854 48.9167 18.9598C48.3953 19.124 43.8798 21.0773 36.3716 25.2055C26.3241 30.7305 23.8393 34.1061 23.812 35.7197C23.7823 37.2488 25.2939 37.9879 27.4185 38.3626C25.8218 39.9293 24.7579 41.5437 24.7266 43.1542C24.6633 46.4046 29.0737 47.5869 36.2392 46.8941C43.5211 46.1893 52.7446 43.3957 52.7446 39.7227C52.7446 36.7402 46.9736 36.5935 39.2656 36.627L34.0978 36.7171C34.0978 36.7171 37.1659 35.0883 40.1682 33.9004C44.561 32.16 49.5033 31.0909 50.6907 30.764C52.5577 30.2514 52.8521 30.0871 54.3445 28.0589C55.824 26.0498 56.5589 24.9496 54.8002 25.3482V25.345ZM35.3655 38.8458C43.4433 39.1559 46.1431 39.5418 46.1255 40.4475C46.0958 42.0205 41.472 43.5288 36.8699 44.1834C32.6023 44.7901 27.9231 44.6395 27.964 42.5323C27.9873 41.3141 29.1892 39.9851 30.9399 38.7055C32.4266 38.7756 33.967 38.7931 35.3655 38.8465" fill="white"/>
<path d="M22.0636 64.9748C21.3415 64.9748 21.3311 64.4295 21.3311 64.219V63.2265C21.3311 63.1667 21.3263 63.0869 21.4546 63.0869H21.8269C21.9481 63.0869 21.9408 63.1714 21.9408 63.2265V64.219C21.9408 64.2892 21.9529 64.4798 22.2144 64.4798H22.8386C23.0954 64.4798 23.1106 64.2892 23.1106 64.219V63.2265C23.1106 63.1714 23.1026 63.0869 23.2238 63.0869H23.5984C23.7348 63.0869 23.722 63.1714 23.722 63.2265V64.219C23.722 64.4295 23.7092 64.9748 22.9871 64.9748H22.0636Z" fill="white"/>
<path d="M25.512 64.8545C25.2577 64.5148 24.895 64.0867 24.5252 63.6339V64.8417C24.5252 64.8943 24.538 64.9749 24.412 64.9749H24.0646C23.9395 64.9749 23.9547 64.8951 23.9547 64.8417V63.2265C23.9547 63.1714 23.9491 63.0869 24.0646 63.0869H24.7418C24.9335 63.0869 25.2047 63.4688 25.3836 63.7247C25.5216 63.9177 25.776 64.2079 25.9453 64.4247V63.2289C25.9453 63.1738 25.938 63.0893 26.064 63.0893H26.4411C26.5623 63.0893 26.5542 63.1738 26.5542 63.2289V64.9772H25.8602C25.7118 64.9772 25.646 64.9868 25.5104 64.8569" fill="white"/>
<path d="M28.373 64.4761C28.6771 64.4761 28.6546 64.1867 28.6546 64.0543C28.6546 63.6087 28.5286 63.5911 28.3273 63.5911H27.3717V64.4761H28.373ZM26.7852 64.9744V63.0889H28.4604C28.5639 63.0889 29.2507 63.0761 29.2507 63.7936C29.2507 64.5263 29.331 64.9744 28.4757 64.9744H27.5723L27.3765 64.5757V64.9744H26.7852Z" fill="white"/>
<path d="M29.9095 63.1016H31.4548C31.5856 63.1016 31.5679 63.1861 31.5679 63.3408C31.5679 63.4954 31.588 63.5704 31.4548 63.5704H30.2305C30.1976 63.5704 30.0868 63.5528 30.0868 63.6684C30.0868 63.784 30.0644 63.8279 30.1871 63.8279H31.2671C31.2671 63.8279 31.4227 64.1229 31.4404 64.1731C31.458 64.2233 31.4636 64.2608 31.3674 64.2608H30.2513L30.0772 63.926V64.4274C30.0772 64.5422 30.1807 64.5199 30.2104 64.5199H31.4789C31.6048 64.5199 31.5952 64.6068 31.5952 64.7495C31.5952 64.8922 31.6048 64.9887 31.4789 64.9887H29.8742C29.741 64.9887 29.4795 64.9488 29.4795 64.5335V63.497C29.4795 63.3894 29.5372 63.1096 29.9071 63.1096" fill="white"/>
<path d="M33.3289 63.5864H32.5772C32.4512 63.5864 32.456 63.6286 32.456 63.6661V64.0041H33.2311C33.6057 64.0041 33.6057 63.9117 33.6057 63.8144C33.6057 63.6191 33.5905 63.5864 33.3289 63.5864ZM31.9826 63.0889H33.6739C33.9002 63.0889 34.2299 63.0889 34.2299 63.694C34.2299 64.0926 34.1441 64.1118 33.9628 64.2338C34.2677 64.2864 34.2275 64.6738 34.2275 64.8716C34.2275 64.9744 34.1898 64.972 34.1593 64.972H33.6635C33.5608 64.972 33.5833 64.8126 33.5833 64.7241C33.5833 64.4913 33.4525 64.5016 33.4019 64.5016H32.6726C32.602 64.3812 32.4664 64.1118 32.4664 64.1118V64.8939C32.4664 64.9616 32.3982 64.9736 32.3726 64.9736H31.8743C31.9024 64.9736 31.8246 64.9784 31.8246 64.9106V63.2515C31.8231 63.2306 31.8261 63.2096 31.8333 63.1899C31.8405 63.1702 31.8519 63.1523 31.8665 63.1372C31.8812 63.1222 31.8989 63.1104 31.9185 63.1026C31.9381 63.0948 31.9591 63.0912 31.9802 63.0921" fill="white"/>
<path d="M36.9388 63.6242C36.9115 63.6721 36.6476 64.1464 36.6275 64.1895C36.6147 64.2094 36.6275 64.2166 36.6548 64.2166H37.2357C37.2686 64.2166 37.2758 64.2094 37.2662 64.1895C37.2461 64.1464 36.9942 63.6721 36.9693 63.6218C36.9682 63.6186 36.9662 63.6159 36.9635 63.6139C36.9607 63.6119 36.9574 63.6109 36.9541 63.6109C36.9507 63.6109 36.9474 63.6119 36.9446 63.6139C36.9419 63.6159 36.9399 63.6186 36.9388 63.6218V63.6242ZM37.1402 63.0996C37.2638 63.0996 37.3809 63.1546 37.5157 63.4066C37.6031 63.5868 38.2169 64.6894 38.3461 64.9214V64.9859H37.7042L37.5205 64.6559H36.7455C36.7455 64.6559 36.6147 64.3585 36.577 64.2764C36.5288 64.3561 36.2721 64.8345 36.1838 64.9859H35.542V64.9461C35.6727 64.7013 36.5657 63.1036 36.5657 63.1036L37.1402 63.0996Z" fill="white"/>
<path d="M40.0194 63.5864H39.2668C39.1408 63.5864 39.1465 63.6286 39.1465 63.6661V64.0041H39.9207C40.2962 64.0041 40.2962 63.9117 40.2962 63.8144C40.2962 63.6191 40.2809 63.5864 40.0194 63.5864ZM38.6731 63.0889H40.3644C40.5906 63.0889 40.9204 63.0889 40.9204 63.694C40.9204 64.0926 40.8346 64.1118 40.6532 64.2338C40.9581 64.2864 40.9172 64.6738 40.9172 64.8716C40.9172 64.9744 40.8803 64.972 40.8498 64.972H40.354C40.2513 64.972 40.2737 64.8126 40.2737 64.7241C40.2737 64.4913 40.1429 64.5016 40.0924 64.5016H39.3623C39.2925 64.3812 39.1561 64.1118 39.1561 64.1118V64.8939C39.1561 64.9616 39.0879 64.9736 39.063 64.9736H38.5648C38.5928 64.9736 38.515 64.9784 38.515 64.9106V63.2515C38.5135 63.2306 38.5165 63.2096 38.5237 63.1899C38.531 63.1702 38.5423 63.1523 38.557 63.1372C38.5717 63.1222 38.5894 63.1104 38.609 63.1026C38.6286 63.0948 38.6496 63.0912 38.6707 63.0921" fill="white"/>
<path d="M42.3998 64.9747C42.2746 64.7355 41.9248 64.0921 41.6881 63.6664V64.8423C41.6881 64.8941 41.6954 64.9747 41.575 64.9747H41.2324C41.1041 64.9747 41.1145 64.8949 41.1145 64.8423V63.2263C41.1145 63.1713 41.1073 63.0892 41.2324 63.0892H41.8237C41.912 63.0892 42.038 63.0692 42.1784 63.3491C42.2843 63.5739 42.5081 64.0395 42.6598 64.2866C42.8401 63.9827 43.0045 63.6698 43.1524 63.3491C43.2912 63.0692 43.4139 63.0892 43.5126 63.0892H44.1015C44.2219 63.0892 44.2099 63.1689 44.2099 63.2263V64.8423C44.2099 64.8941 44.2275 64.9747 44.1015 64.9747H43.7565C43.6306 64.9747 43.641 64.8949 43.641 64.8423V63.6664C43.4003 64.0921 43.0545 64.7395 42.9237 64.9747H42.3998Z" fill="white"/>
<path d="M46.0981 64.4933C46.3829 64.4933 46.3725 64.2015 46.3725 64.0062C46.3725 63.8308 46.4126 63.5557 46.0427 63.5557H45.4169C45.0495 63.5557 45.096 63.8308 45.096 64.0062C45.096 64.2015 45.0783 64.4933 45.3632 64.4933H46.0981ZM44.9748 64.9788C44.4132 64.9788 44.4389 64.3809 44.4389 63.9934C44.4389 63.6386 44.3988 63.0829 45.1008 63.0781H46.3468C47.0513 63.0781 47.0055 63.641 47.0055 63.9934C47.0055 64.3809 47.0336 64.9788 46.4648 64.9788H44.9748Z" fill="white"/>
<path d="M47.9405 64.9748C47.2184 64.9748 47.208 64.4295 47.208 64.219V63.2265C47.208 63.1667 47.2032 63.0869 47.3308 63.0869H47.7038C47.8242 63.0869 47.817 63.1714 47.817 63.2265V64.219C47.817 64.2892 47.829 64.4798 48.0914 64.4798H48.7148C48.9715 64.4798 48.9868 64.2892 48.9868 64.219V63.2265C48.9868 63.1714 48.9795 63.0869 49.0999 63.0869H49.4754C49.611 63.0869 49.5981 63.1714 49.5981 63.2265V64.219C49.5981 64.4295 49.5861 64.9748 48.864 64.9748H47.9405Z" fill="white"/>
<path d="M51.3449 63.5864H50.5923C50.4663 63.5864 50.4711 63.6286 50.4711 63.6661V64.0041H51.2462C51.6217 64.0041 51.6217 63.9117 51.6217 63.8144C51.6217 63.6191 51.6064 63.5864 51.3449 63.5864ZM49.9986 63.0889H51.6899C51.9161 63.0889 52.2459 63.0889 52.2459 63.694C52.2459 64.0926 52.16 64.1118 51.9787 64.2338C52.2836 64.2864 52.2427 64.6738 52.2427 64.8716C52.2427 64.9744 52.205 64.972 52.1753 64.972H51.6794C51.5759 64.972 51.5992 64.8126 51.5992 64.7241C51.5992 64.4913 51.4684 64.5016 51.4179 64.5016H50.6902C50.6196 64.3812 50.484 64.1118 50.484 64.1118V64.8939C50.484 64.9616 50.4158 64.9736 50.3909 64.9736H49.8926C49.9207 64.9736 49.8421 64.9784 49.8421 64.9106V63.2515C49.8407 63.2302 49.8439 63.2089 49.8514 63.1889C49.859 63.1689 49.8708 63.1507 49.886 63.1357C49.9011 63.1206 49.9194 63.1089 49.9395 63.1013C49.9596 63.0938 49.9811 63.0907 50.0026 63.0921" fill="white"/>
<path d="M52.6057 64.7206H52.6739C52.7092 64.7206 52.7157 64.7102 52.7157 64.6951V64.6911C52.7157 64.6712 52.7092 64.66 52.6739 64.66H52.6057V64.7206ZM52.5544 64.8665V64.656C52.5544 64.6249 52.5544 64.617 52.5881 64.617H52.6956C52.7169 64.617 52.7373 64.6254 52.7523 64.6403C52.7674 64.6553 52.7758 64.6756 52.7758 64.6967C52.7758 64.7397 52.7566 64.7764 52.7132 64.7764C52.7269 64.8019 52.7461 64.8394 52.7606 64.8625C52.775 64.8856 52.7269 64.9056 52.7189 64.8976C52.6876 64.8522 52.6675 64.8131 52.6467 64.782H52.6089V64.8761C52.6089 64.9016 52.5873 64.9032 52.5752 64.9032C52.5632 64.9032 52.556 64.8841 52.556 64.8681L52.5544 64.8665ZM52.6523 64.9407C52.6769 64.9403 52.7013 64.9351 52.7239 64.9254C52.7465 64.9157 52.767 64.9016 52.7842 64.884C52.8014 64.8665 52.8149 64.8457 52.824 64.8229C52.8331 64.8001 52.8376 64.7758 52.8372 64.7513C52.8368 64.7268 52.8316 64.7026 52.8218 64.6801C52.8121 64.6576 52.7979 64.6373 52.7802 64.6202C52.7625 64.6031 52.7416 64.5897 52.7187 64.5807C52.6958 64.5716 52.6713 64.5672 52.6467 64.5675C52.5979 64.5678 52.5511 64.5864 52.5155 64.6195C52.48 64.6526 52.4583 64.6978 52.4549 64.7461C52.4546 64.7713 52.4593 64.7962 52.4689 64.8195C52.4785 64.8428 52.4927 64.8639 52.5107 64.8816C52.5286 64.8993 52.55 64.9132 52.5735 64.9226C52.597 64.9319 52.6222 64.9364 52.6475 64.9359L52.6523 64.9407ZM52.4052 64.7461C52.4078 64.6827 52.4347 64.6227 52.4803 64.5782C52.5259 64.5338 52.5868 64.5083 52.6507 64.5069C52.6828 64.5061 52.7148 64.5116 52.7447 64.5233C52.7747 64.5349 52.802 64.5524 52.825 64.5747C52.8481 64.597 52.8664 64.6237 52.8789 64.6531C52.8914 64.6825 52.8978 64.7142 52.8978 64.7461C52.8974 64.8125 52.8705 64.8759 52.8232 64.9227C52.7758 64.9694 52.7118 64.9957 52.645 64.9957C52.6127 64.995 52.5809 64.9881 52.5513 64.9752C52.5217 64.9623 52.4949 64.9437 52.4726 64.9206C52.4502 64.8974 52.4327 64.87 52.421 64.8401C52.4093 64.8102 52.4036 64.7782 52.4044 64.7461" fill="white"/>
<path d="M17.1666 64.677L17.0695 64.4378H16.4782L16.3827 64.677H16L16.5616 63.4014H17.0045L17.5661 64.677H17.1666ZM16.775 63.698L16.5913 64.1556H16.9612L16.775 63.698Z" fill="white"/>
<path d="M19.2766 64.677L18.6251 63.9021V64.677H18.2656V63.4014H18.6002L19.2509 64.1771V63.4014H19.6103V64.677H19.2766Z" fill="white"/>
<path d="M54.2461 64.6771V63.4014H54.9136C55.0537 63.3914 55.1939 63.419 55.3196 63.4812C55.3628 63.5057 55.3984 63.5416 55.4225 63.5849C55.4465 63.6282 55.4581 63.6773 55.456 63.7267C55.4568 63.7879 55.4371 63.8476 55.4001 63.8965C55.3631 63.9454 55.3108 63.9808 55.2514 63.997C55.4209 64.0501 55.5055 64.1514 55.5049 64.3007C55.5075 64.3554 55.4957 64.4097 55.4707 64.4584C55.4456 64.507 55.4082 64.5484 55.3621 64.5782C55.2356 64.6497 55.0909 64.683 54.9457 64.6739L54.2461 64.6771ZM54.9064 63.8965C55.0331 63.8965 55.0965 63.8559 55.0965 63.7746C55.0971 63.7584 55.0931 63.7424 55.085 63.7283C55.0769 63.7142 55.0651 63.7026 55.0508 63.6948C55.0016 63.6745 54.9483 63.6658 54.8951 63.6693H54.5951V63.9005L54.9064 63.8965ZM54.9136 64.4124C54.974 64.4169 55.0346 64.4068 55.0901 64.3829C55.1076 64.3723 55.1217 64.357 55.1307 64.3388C55.1398 64.3206 55.1435 64.3002 55.1415 64.28C55.1431 64.2593 55.139 64.2385 55.1295 64.2199C55.12 64.2013 55.1055 64.1857 55.0877 64.1748C55.0333 64.1496 54.9734 64.1386 54.9136 64.1429H54.5927V64.4124H54.9136Z" fill="white"/>
<path d="M57.1838 64.677L56.9271 64.2449H56.6318V64.677H56.2764V63.4014H56.9327C57.3146 63.4014 57.5058 63.5425 57.5063 63.8247C57.511 63.8993 57.4914 63.9734 57.4506 64.0361C57.4097 64.0988 57.3497 64.1468 57.2793 64.1731L57.5938 64.677H57.1838ZM56.9086 63.973C56.9702 63.9775 57.0318 63.9651 57.0867 63.9371C57.1037 63.9232 57.1174 63.9056 57.1268 63.8858C57.1362 63.8659 57.141 63.8443 57.141 63.8223C57.141 63.8004 57.1362 63.7788 57.1268 63.7589C57.1174 63.7391 57.1037 63.7215 57.0867 63.7075C57.0319 63.6803 56.9706 63.6684 56.9094 63.6733H56.6286V63.973H56.9086Z" fill="white"/>
<path d="M59.3354 64.677L59.2383 64.4378H58.647L58.5515 64.677H58.168L58.7296 63.4014H59.1725L59.7341 64.677H59.3354ZM58.943 63.698L58.7577 64.1556H59.1284L58.943 63.698Z" fill="white"/>
<path d="M61.4447 64.677L60.794 63.9021V64.677H60.4346V63.4014H60.7691L61.4198 64.1771V63.4014H61.7793V64.677H61.4447Z" fill="white"/>
<path d="M62.6133 64.677V63.4014H63.2174C63.4742 63.4014 63.6686 63.4545 63.8007 63.5608C63.8688 63.6199 63.9221 63.6938 63.9567 63.7768C63.9912 63.8598 64.0059 63.9496 63.9997 64.0392C64.0045 64.1286 63.9882 64.2179 63.952 64.2999C63.9157 64.3819 63.8606 64.4542 63.7911 64.5112C63.652 64.6223 63.4549 64.6775 63.1998 64.677H62.6133ZM63.2086 64.3772C63.479 64.3772 63.6146 64.2632 63.6146 64.0376C63.6146 63.812 63.4846 63.7012 63.2246 63.7012H62.9839V64.3772H63.2086Z" fill="white"/>
</g>
<defs>
<clipPath id="clip0_1447_8971">
<rect width="48" height="50" fill="white" transform="translate(16 15)"/>
</clipPath>
</defs>
</svg>
