<svg width="28" height="28" viewBox="0 0 28 28" fill="none" xmlns="http://www.w3.org/2000/svg">
<path d="M20.1193 8.10675L11.3327 16.8934L6.54602 12.1201L4.66602 14.0001L11.3327 20.6667L21.9993 10.0001L20.1193 8.10675ZM13.9993 0.666748C6.63935 0.666748 0.666016 6.64008 0.666016 14.0001C0.666016 21.3601 6.63935 27.3334 13.9993 27.3334C21.3593 27.3334 27.3327 21.3601 27.3327 14.0001C27.3327 6.64008 21.3593 0.666748 13.9993 0.666748ZM13.9993 24.6667C8.10602 24.6667 3.33268 19.8934 3.33268 14.0001C3.33268 8.10675 8.10602 3.33341 13.9993 3.33341C19.8927 3.33341 24.666 8.10675 24.666 14.0001C24.666 19.8934 19.8927 24.6667 13.9993 24.6667Z" fill="#FFCA21"/>
</svg>
