<svg width="88" height="24" viewBox="0 0 88 24" fill="none" xmlns="http://www.w3.org/2000/svg">
<path d="M35.5475 15.6677V4.5H32.8262V18.4344H41.0566V15.6677H35.5475Z" fill="#FFFEFF"/>
<path d="M52.5563 4.5V12.7823C52.5563 14.651 51.3247 15.8054 49.9565 15.8054C48.5883 15.8054 47.3555 14.6574 47.3555 12.7823V4.5H44.6592V13.1382C44.6592 16.3029 46.828 18.5709 49.9565 18.5709C53.0851 18.5709 55.2739 16.3029 55.2739 13.1382V4.5H52.5563Z" fill="#FFFEFF"/>
<path d="M68.6075 4.50007V12.7212L61.2152 4.3623H60.0225V18.4345H62.72V10.2325L70.0909 18.5722H71.3025V4.50007H68.6075Z" fill="#FFFEFF"/>
<path d="M81.8405 4.3623H80.6878L74.6074 18.4345H77.5793C77.8926 17.6781 78.3411 16.6818 78.6731 15.8833H78.6832L79.8797 13.1166H79.8697L81.2755 9.89321L83.8966 15.8884L85.0104 18.4396H88.0024L81.8405 4.3623Z" fill="#FFFEFF"/>
<path d="M11.9993 8.41801C11.6683 8.41801 11.3446 8.51792 11.0693 8.70509C10.7941 8.89227 10.5795 9.1583 10.4529 9.46954C10.3263 9.78077 10.2932 10.1232 10.3579 10.4536C10.4226 10.784 10.5821 11.0874 10.8163 11.3255C11.0505 11.5636 11.3488 11.7257 11.6736 11.7912C11.9983 11.8568 12.3349 11.8229 12.6407 11.6938C12.9465 11.5647 13.2078 11.3463 13.3916 11.0661C13.5754 10.7859 13.6733 10.4565 13.6731 10.1196C13.6731 9.89607 13.6298 9.67469 13.5456 9.46816C13.4615 9.26162 13.3382 9.07398 13.1828 8.91596C13.0273 8.75793 12.8428 8.63262 12.6397 8.54718C12.4367 8.46174 12.2191 8.41785 11.9993 8.41801V8.41801ZM11.9993 8.41801C11.6683 8.41801 11.3446 8.51792 11.0693 8.70509C10.7941 8.89227 10.5795 9.1583 10.4529 9.46954C10.3263 9.78077 10.2932 10.1232 10.3579 10.4536C10.4226 10.784 10.5821 11.0874 10.8163 11.3255C11.0505 11.5636 11.3488 11.7257 11.6736 11.7912C11.9983 11.8568 12.3349 11.8229 12.6407 11.6938C12.9465 11.5647 13.2078 11.3463 13.3916 11.0661C13.5754 10.7859 13.6733 10.4565 13.6731 10.1196C13.6731 9.89607 13.6298 9.67469 13.5456 9.46816C13.4615 9.26162 13.3382 9.07398 13.1828 8.91596C13.0273 8.75793 12.8428 8.63262 12.6397 8.54718C12.4367 8.46174 12.2191 8.41785 11.9993 8.41801V8.41801ZM11.9993 8.41801C11.6683 8.41801 11.3446 8.51792 11.0693 8.70509C10.7941 8.89227 10.5795 9.1583 10.4529 9.46954C10.3263 9.78077 10.2932 10.1232 10.3579 10.4536C10.4226 10.784 10.5821 11.0874 10.8163 11.3255C11.0505 11.5636 11.3488 11.7257 11.6736 11.7912C11.9983 11.8568 12.3349 11.8229 12.6407 11.6938C12.9465 11.5647 13.2078 11.3463 13.3916 11.0661C13.5754 10.7859 13.6733 10.4565 13.6731 10.1196C13.6731 9.89607 13.6298 9.67469 13.5456 9.46816C13.4615 9.26162 13.3382 9.07398 13.1828 8.91596C13.0273 8.75793 12.8428 8.63262 12.6397 8.54718C12.4367 8.46174 12.2191 8.41785 11.9993 8.41801V8.41801ZM23.9962 11.9246C23.9962 11.848 23.9962 11.7728 23.9887 11.6975C23.9887 11.7039 23.9887 11.7103 23.9887 11.7167C23.8684 8.5651 22.554 5.58321 20.3208 3.39583C18.0875 1.20846 15.1089 -0.0146124 12.009 -0.0170861C8.90912 -0.0195598 5.92859 1.19876 3.692 3.38256C1.45541 5.56637 0.136354 8.54617 0.0112472 11.6975C0.0112472 11.7741 0.0112472 11.8506 0.0037249 11.9284C-0.00379744 12.0062 -3.62708e-05 12.1172 -3.62708e-05 12.2078C-3.62708e-05 12.2983 -3.62708e-05 12.4042 -3.62708e-05 12.4999C-3.62708e-05 12.5955 -3.62712e-05 12.658 0.00748606 12.7371C0.0150084 12.8162 0.0150084 12.894 0.0200233 12.9718C0.018823 12.9892 0.018823 13.0067 0.0200233 13.0241C0.0200233 13.0905 0.0287993 13.1581 0.0338142 13.2244C0.0338142 13.2512 0.0338142 13.2792 0.0413366 13.306C0.0413366 13.3698 0.0526201 13.4336 0.0588887 13.4974C0.0864706 13.7627 0.121575 14.0255 0.166709 14.2857C0.179246 14.3648 0.193037 14.4438 0.208082 14.5217C0.207538 14.5246 0.207538 14.5276 0.208082 14.5306C0.223126 14.6122 0.239425 14.6926 0.255723 14.7729C0.272021 14.8533 0.285812 14.9145 0.302111 14.9847C0.318409 15.0548 0.328439 15.0969 0.34223 15.1531C0.371066 15.2806 0.402409 15.3942 0.436259 15.5141C0.457572 15.5931 0.480139 15.671 0.50396 15.7488C0.50396 15.7488 0.50396 15.7551 0.50396 15.7577L0.571661 15.9439C0.592974 16.0141 0.616795 16.0842 0.640616 16.1544C0.664437 16.2246 0.68575 16.2922 0.710824 16.3598C0.86437 16.7929 1.04227 17.2166 1.24366 17.629C1.27375 17.6915 1.30509 17.7565 1.33643 17.8139C1.34646 17.8367 1.35776 17.8588 1.37028 17.8803C1.43798 18.0078 1.50819 18.1417 1.57965 18.2693C1.61977 18.3407 1.66115 18.4122 1.70503 18.4823L1.8141 18.6635C1.86425 18.7476 1.91691 18.8306 1.97082 18.9122C2.02473 18.9938 2.05356 19.0398 2.09619 19.1035C2.23159 19.3076 2.3741 19.5066 2.52371 19.7005C2.5726 19.7656 2.62275 19.8281 2.67415 19.8931L2.80705 20.0577L2.84717 20.1061C2.89355 20.161 2.93869 20.2146 2.98508 20.2669C3.03146 20.3192 3.11045 20.4072 3.17063 20.4773C3.32609 20.6474 3.48573 20.8141 3.64955 20.9774C3.82256 21.1483 4.00059 21.3128 4.18363 21.4736C4.30901 21.5794 4.43438 21.684 4.55975 21.7861L4.7453 21.9391L4.93963 22.0858L5.14023 22.2236C5.40351 22.4115 5.67515 22.5884 5.95514 22.7542L6.16577 22.8818L6.3789 23.0004C6.73747 23.1926 7.10564 23.3678 7.48343 23.526C7.63513 23.5885 7.78809 23.6471 7.94229 23.7045C8.25071 23.8168 8.56916 23.9176 8.88509 24.0043C8.95029 23.671 9.023 23.3499 9.10324 23.0412C9.7301 20.6176 10.7958 19.0181 12.0031 19.0181C13.2104 19.0181 14.2736 20.6125 14.903 23.0412C14.9865 23.3499 15.0593 23.671 15.1211 24.0043C15.7087 23.8445 16.2833 23.6389 16.84 23.3895C16.9779 23.327 17.1145 23.2619 17.2499 23.1956C17.3853 23.1293 17.5182 23.0591 17.6511 22.9877L17.848 22.878C18.0444 22.7657 18.2374 22.6488 18.4272 22.5272C18.6169 22.4056 18.8025 22.278 18.9838 22.1445C19.1092 22.0552 19.2245 21.9647 19.3424 21.8728C19.637 21.6407 19.9216 21.3945 20.1924 21.1368C20.4106 20.9302 20.6199 20.7146 20.8193 20.499C20.8707 20.4429 20.9196 20.3868 20.9697 20.3306L21.1164 20.1597C21.2129 20.0449 21.3082 19.9276 21.401 19.8089C21.4399 19.7605 21.4775 19.7107 21.5151 19.661L21.5665 19.5921L21.6543 19.4735C21.7057 19.4046 21.7546 19.3344 21.8034 19.263C21.8824 19.1495 21.9602 19.0347 22.0354 18.9186C22.083 18.8446 22.1307 18.7693 22.1758 18.6941C22.256 18.5665 22.3325 18.439 22.4077 18.3025C22.4454 18.2361 22.483 18.1749 22.5181 18.1035C22.5532 18.032 22.5858 17.9759 22.6184 17.9134L22.6297 17.893C22.6622 17.828 22.6961 17.7655 22.7274 17.6978C22.7964 17.5614 22.8616 17.4236 22.923 17.2833C22.9468 17.231 22.9694 17.18 22.992 17.1264C23.1236 16.8241 23.2427 16.5141 23.348 16.199C23.3719 16.1302 23.3944 16.0626 23.417 15.9924C23.4408 15.9197 23.4634 15.847 23.4859 15.773C23.4859 15.773 23.4859 15.773 23.4859 15.7653C23.506 15.6939 23.5273 15.6212 23.5474 15.5485C23.5888 15.4005 23.6264 15.2526 23.6627 15.1033V15.0867C23.6765 15.0293 23.689 14.9707 23.7028 14.912C23.7242 14.815 23.7442 14.7168 23.7643 14.6186C23.8069 14.3966 23.8441 14.1726 23.8759 13.9464V13.9158C23.8859 13.843 23.8947 13.7716 23.9034 13.6989C23.9122 13.6262 23.9222 13.5395 23.9298 13.4604C23.936 13.4004 23.941 13.3405 23.9461 13.2792C23.9461 13.2397 23.9536 13.2002 23.9561 13.1619C23.9561 13.0879 23.9661 13.0126 23.9699 12.9387C23.9849 12.7014 23.9912 12.4629 23.9912 12.2218C23.997 12.118 23.9987 12.019 23.9962 11.9246ZM11.9993 17.3751C9.50945 17.3751 7.29412 18.3484 5.87992 19.8587C5.53775 19.0756 5.36095 18.2282 5.36095 17.3713C5.36095 16.5144 5.53775 15.667 5.87992 14.8839C6.21716 14.1189 6.69846 13.4286 7.29663 12.8519C7.29663 6.03141 11.9981 2.51081 11.9981 2.51081C11.9981 2.51081 16.6995 6.03141 16.6995 12.8519C17.308 13.4312 17.7937 14.1309 18.1268 14.9081C18.4599 15.6852 18.6333 16.5235 18.6365 17.3713C18.6372 18.2274 18.4607 19.074 18.1188 19.8561C16.7046 18.3484 14.4905 17.3751 11.9993 17.3751ZM11.9993 8.42184C11.6683 8.42184 11.3446 8.52175 11.0693 8.70892C10.7941 8.89609 10.5795 9.16212 10.4529 9.47336C10.3263 9.7846 10.2932 10.1271 10.3579 10.4574C10.4226 10.7878 10.5821 11.0912 10.8163 11.3293C11.0505 11.5674 11.3488 11.7295 11.6736 11.7951C11.9983 11.8606 12.3349 11.8267 12.6407 11.6976C12.9465 11.5686 13.2078 11.3501 13.3916 11.0699C13.5754 10.7897 13.6733 10.4603 13.6731 10.1235C13.6736 9.89957 13.6306 9.67779 13.5467 9.47081C13.4628 9.26383 13.3396 9.07574 13.1841 8.91731C13.0286 8.75888 12.8439 8.63322 12.6406 8.54754C12.4373 8.46186 12.2194 8.41785 11.9993 8.41801V8.42184ZM11.9993 8.42184C11.6683 8.42184 11.3446 8.52175 11.0693 8.70892C10.7941 8.89609 10.5795 9.16212 10.4529 9.47336C10.3263 9.7846 10.2932 10.1271 10.3579 10.4574C10.4226 10.7878 10.5821 11.0912 10.8163 11.3293C11.0505 11.5674 11.3488 11.7295 11.6736 11.7951C11.9983 11.8606 12.3349 11.8267 12.6407 11.6976C12.9465 11.5686 13.2078 11.3501 13.3916 11.0699C13.5754 10.7897 13.6733 10.4603 13.6731 10.1235C13.6736 9.89957 13.6306 9.67779 13.5467 9.47081C13.4628 9.26383 13.3396 9.07574 13.1841 8.91731C13.0286 8.75888 12.8439 8.63322 12.6406 8.54754C12.4373 8.46186 12.2194 8.41785 11.9993 8.41801V8.42184ZM11.9993 8.42184C11.6683 8.42184 11.3446 8.52175 11.0693 8.70892C10.7941 8.89609 10.5795 9.16212 10.4529 9.47336C10.3263 9.7846 10.2932 10.1271 10.3579 10.4574C10.4226 10.7878 10.5821 11.0912 10.8163 11.3293C11.0505 11.5674 11.3488 11.7295 11.6736 11.7951C11.9983 11.8606 12.3349 11.8267 12.6407 11.6976C12.9465 11.5686 13.2078 11.3501 13.3916 11.0699C13.5754 10.7897 13.6733 10.4603 13.6731 10.1235C13.6736 9.89957 13.6306 9.67779 13.5467 9.47081C13.4628 9.26383 13.3396 9.07574 13.1841 8.91731C13.0286 8.75888 12.8439 8.63322 12.6406 8.54754C12.4373 8.46186 12.2194 8.41785 11.9993 8.41801V8.42184ZM11.9993 8.42184C11.6683 8.42184 11.3446 8.52175 11.0693 8.70892C10.7941 8.89609 10.5795 9.16212 10.4529 9.47336C10.3263 9.7846 10.2932 10.1271 10.3579 10.4574C10.4226 10.7878 10.5821 11.0912 10.8163 11.3293C11.0505 11.5674 11.3488 11.7295 11.6736 11.7951C11.9983 11.8606 12.3349 11.8267 12.6407 11.6976C12.9465 11.5686 13.2078 11.3501 13.3916 11.0699C13.5754 10.7897 13.6733 10.4603 13.6731 10.1235C13.6736 9.89957 13.6306 9.67779 13.5467 9.47081C13.4628 9.26383 13.3396 9.07574 13.1841 8.91731C13.0286 8.75888 12.8439 8.63322 12.6406 8.54754C12.4373 8.46186 12.2194 8.41785 11.9993 8.41801V8.42184Z" fill="white"/>
<defs>
<clipPath id="clip0_163_1312">
<rect width="88" height="24" fill="white"/>
</clipPath>
<clipPath id="clip1_163_1312">
<rect width="24" height="24" fill="white" transform="translate(0 -0.000976562)"/>
</clipPath>
</defs>
</svg>
