<svg width="20" height="20" viewBox="0 0 20 20" fill="none" xmlns="http://www.w3.org/2000/svg">
<path d="M14.5345 11.2931C14.5 11.2586 14.4483 11.2586 14.3966 11.2759L14.2759 11.3276C13.6897 11.6207 13.0345 11.7586 12.3793 11.7586C12.3448 11.7586 12.3276 11.7759 12.3276 11.7931C12.2586 12.1034 12 12.3276 11.6724 12.3276H10.3276V11.2069H10.3448C10.431 11.2241 10.5 11.2241 10.5862 11.2414C11.1552 11.3276 11.431 11.5862 11.5517 11.7069L11.569 11.7241C11.5862 11.7414 11.6207 11.7414 11.6379 11.7241C11.6552 11.7069 11.6724 11.6897 11.7069 11.6724C11.9138 11.5345 12.3966 11.2414 12.3966 9.68966C12.3966 8.10345 11.1897 7.03448 11.0517 6.96552L10.3448 6.91379H10.3276V6.46552C10.4655 6.37931 10.569 6.22414 10.569 6.03448C10.569 5.75862 10.3621 5.53448 10.0862 5.53448C9.81034 5.53448 9.60345 5.75862 9.60345 6.03448C9.60345 6.2069 9.68966 6.36207 9.84483 6.44828V6.82759L8.82759 6.72414C8.77586 6.72414 8.74138 6.77586 8.77586 6.81035C8.94828 7.08621 9.41379 7.94828 9.44828 9.24138C9.48276 10.4483 9.2931 11.0172 9.2069 11.2241C9.18966 11.2414 9.18966 11.2586 9.2069 11.2759C9.22414 11.2931 9.24138 11.2931 9.25862 11.2931C9.37931 11.2759 9.58621 11.2414 9.84483 11.2241V12.3448H8.72414C8.36207 12.3448 8.05172 12.0345 8.05172 11.6724V11.3966C8.05172 11.3621 8.03448 11.3448 8 11.3448H5.91379C5.89655 11.3448 5.86207 11.3621 5.86207 11.3966C5.86207 11.4483 5.86207 11.5 5.86207 11.5517C5.86207 12.3276 6.08621 13.0345 6.46552 13.6552C6.53448 13.7586 6.65517 13.8103 6.75862 13.7586L6.98276 13.6552C7.15517 13.569 7.36207 13.569 7.55172 13.6552L7.7931 13.7586C7.96552 13.8448 8.17241 13.8448 8.36207 13.7586L8.60345 13.6552C8.7931 13.569 8.98276 13.569 9.17241 13.6552L9.41379 13.7586C9.60345 13.8448 9.7931 13.8448 9.98276 13.7586L10.2241 13.6552C10.4138 13.569 10.6034 13.569 10.7931 13.6552L11.0345 13.7586C11.2241 13.8448 11.4138 13.8448 11.6034 13.7586L11.8448 13.6552C12.0345 13.569 12.2241 13.569 12.4138 13.6552L12.6552 13.7586C12.8103 13.8276 12.9828 13.7414 13.069 13.5862C13.2069 13.3621 13.3276 13.1034 13.4138 12.8621C13.6034 12.2931 13.9483 11.7586 14.4828 11.5C14.5345 11.4828 14.5517 11.431 14.5517 11.3793C14.5862 11.3621 14.569 11.3103 14.5345 11.2931ZM6.84483 10.9138H8.81034C8.84483 10.9138 8.86207 10.8966 8.86207 10.8621V8.72414C8.86207 8.7069 8.84483 8.68966 8.82759 8.67241L7.86207 8.22414C7.84483 8.2069 7.81035 8.22414 7.7931 8.25862L6.7931 10.8276C6.77586 10.8793 6.81035 10.9138 6.84483 10.9138ZM10 0C4.48276 0 0 4.48276 0 10C0 15.5172 4.48276 20 10 20C15.5172 20 20 15.5172 20 10C20 4.48276 15.5172 0 10 0ZM9.96552 17.2759C5.98276 17.2759 2.75862 14.0517 2.75862 10.0517C2.75862 6.06897 5.98276 2.82759 9.96552 2.82759C13.9483 2.82759 17.1724 6.06897 17.1724 10.0517C17.1552 14.0517 13.931 17.2759 9.96552 17.2759ZM14.3966 11.2759L14.2759 11.3276C13.6897 11.6207 13.0345 11.7586 12.3793 11.7586C12.3448 11.7586 12.3276 11.7759 12.3276 11.7931C12.2586 12.1034 12 12.3276 11.6724 12.3276H10.3276V11.2069H10.3448C10.431 11.2241 10.5 11.2241 10.5862 11.2414C11.1552 11.3276 11.431 11.5862 11.5517 11.7069L11.569 11.7241C11.5862 11.7414 11.6207 11.7414 11.6379 11.7241C11.6552 11.7069 11.6724 11.6897 11.7069 11.6724C11.9138 11.5345 12.3966 11.2414 12.3966 9.68966C12.3966 8.10345 11.1897 7.03448 11.0517 6.96552L10.3448 6.91379H10.3276V6.46552C10.4655 6.37931 10.569 6.22414 10.569 6.03448C10.569 5.75862 10.3621 5.53448 10.0862 5.53448C9.81034 5.53448 9.60345 5.75862 9.60345 6.03448C9.60345 6.2069 9.68966 6.36207 9.84483 6.44828V6.82759L8.82759 6.72414C8.77586 6.72414 8.74138 6.77586 8.77586 6.81035C8.94828 7.08621 9.41379 7.94828 9.44828 9.24138C9.48276 10.4483 9.2931 11.0172 9.2069 11.2241C9.18966 11.2414 9.18966 11.2586 9.2069 11.2759C9.22414 11.2931 9.24138 11.2931 9.25862 11.2931C9.37931 11.2759 9.58621 11.2414 9.84483 11.2241V12.3448H8.72414C8.36207 12.3448 8.05172 12.0345 8.05172 11.6724V11.3966C8.05172 11.3621 8.03448 11.3448 8 11.3448H5.91379C5.89655 11.3448 5.86207 11.3621 5.86207 11.3966C5.86207 11.4483 5.86207 11.5 5.86207 11.5517C5.86207 12.3276 6.08621 13.0345 6.46552 13.6552C6.53448 13.7586 6.65517 13.8103 6.75862 13.7586L6.98276 13.6552C7.15517 13.569 7.36207 13.569 7.55172 13.6552L7.7931 13.7586C7.96552 13.8448 8.17241 13.8448 8.36207 13.7586L8.60345 13.6552C8.7931 13.569 8.98276 13.569 9.17241 13.6552L9.41379 13.7586C9.60345 13.8448 9.7931 13.8448 9.98276 13.7586L10.2241 13.6552C10.4138 13.569 10.6034 13.569 10.7931 13.6552L11.0345 13.7586C11.2241 13.8448 11.4138 13.8448 11.6034 13.7586L11.8448 13.6552C12.0345 13.569 12.2241 13.569 12.4138 13.6552L12.6552 13.7586C12.8103 13.8276 12.9828 13.7414 13.069 13.5862C13.2069 13.3621 13.3276 13.1034 13.4138 12.8621C13.6034 12.2931 13.9483 11.7586 14.4828 11.5C14.5345 11.4828 14.5517 11.431 14.5517 11.3793C14.5517 11.3448 14.5345 11.2931 14.5 11.2759C14.5 11.2759 14.4483 11.2586 14.3966 11.2759ZM6.84483 10.9138H8.81034C8.84483 10.9138 8.86207 10.8966 8.86207 10.8621V8.72414C8.86207 8.7069 8.84483 8.68966 8.82759 8.67241L7.86207 8.22414C7.84483 8.2069 7.81035 8.22414 7.7931 8.25862L6.7931 10.8276C6.77586 10.8793 6.81035 10.9138 6.84483 10.9138Z" fill="#969AA1"/>
<path d="M8.82758 8.68966L7.86206 8.24138C7.84482 8.22414 7.81034 8.24138 7.79309 8.27586L6.7931 10.8448C6.77585 10.8793 6.81034 10.9138 6.84482 10.9138H8.81034C8.84482 10.9138 8.86206 10.8966 8.86206 10.8621V8.72414C8.86206 8.7069 8.84482 8.68966 8.82758 8.68966ZM14.5345 11.2931C14.5 11.2586 14.4483 11.2586 14.3965 11.2759L14.2759 11.3276C13.6896 11.6207 13.0345 11.7586 12.3793 11.7586C12.3448 11.7586 12.3276 11.7759 12.3276 11.7931C12.2586 12.1034 12 12.3276 11.6724 12.3276H10.3276V11.2069H10.3448C10.431 11.2241 10.5 11.2241 10.5862 11.2414C11.1552 11.3276 11.431 11.5862 11.5517 11.7069L11.569 11.7241C11.5862 11.7414 11.6207 11.7414 11.6379 11.7241C11.6552 11.7069 11.6724 11.6897 11.7069 11.6724C11.9138 11.5345 12.3965 11.2414 12.3965 9.68966C12.3965 8.10345 11.1896 7.03449 11.0517 6.96552L10.3448 6.91379H10.3276V6.46552C10.4655 6.37931 10.569 6.22414 10.569 6.03449C10.569 5.75862 10.3621 5.53448 10.0862 5.53448C9.81034 5.53448 9.60344 5.75862 9.60344 6.03449C9.60344 6.2069 9.68965 6.36207 9.84482 6.44828V6.82759L8.82758 6.72414C8.77585 6.72414 8.74137 6.77586 8.77585 6.81035C8.94827 7.08621 9.41378 7.94828 9.44827 9.24138C9.48275 10.4483 9.29309 11.0172 9.20689 11.2241C9.18965 11.2414 9.18965 11.2586 9.20689 11.2759C9.22413 11.2931 9.24137 11.2931 9.25861 11.2931C9.3793 11.2759 9.5862 11.2414 9.84482 11.2241V12.3448H8.72413C8.36206 12.3448 8.05172 12.0345 8.05172 11.6724V11.3966C8.05172 11.3621 8.03447 11.3448 7.99999 11.3448H5.91378C5.89654 11.3448 5.86206 11.3621 5.86206 11.3966C5.86206 11.4483 5.86206 11.5 5.86206 11.5517C5.86206 12.3276 6.0862 13.0345 6.46551 13.6552C6.53447 13.7586 6.65516 13.8103 6.75861 13.7586L6.98275 13.6552C7.15516 13.569 7.36206 13.569 7.55172 13.6552L7.79309 13.7586C7.96551 13.8448 8.1724 13.8448 8.36206 13.7586L8.60344 13.6552C8.79309 13.569 8.98275 13.569 9.1724 13.6552L9.41378 13.7586C9.60344 13.8448 9.79309 13.8448 9.98275 13.7586L10.2241 13.6552C10.4138 13.569 10.6034 13.569 10.7931 13.6552L11.0345 13.7586C11.2241 13.8448 11.4138 13.8448 11.6034 13.7586L11.8448 13.6552C12.0345 13.569 12.2241 13.569 12.4138 13.6552L12.6552 13.7586C12.8103 13.8276 12.9827 13.7414 13.069 13.5862C13.2069 13.3621 13.3276 13.1034 13.4138 12.8621C13.6034 12.2931 13.9483 11.7586 14.4827 11.5C14.5345 11.4828 14.5517 11.431 14.5517 11.3793C14.5862 11.3621 14.569 11.3103 14.5345 11.2931Z" fill="#969AA1"/>
</svg>
